<svg width="64" height="64" viewBox="0 0 64 64" fill="none" xmlns="http://www.w3.org/2000/svg">
  <defs>
    <radialGradient id="paint0_radial" cx="0" cy="0" r="1" gradientUnits="userSpaceOnUse" gradientTransform="translate(20 16) rotate(45) scale(48)">
      <stop stop-color="#3A86FF"/>
      <stop offset="1" stop-color="#1B44C6"/>
    </radialGradient>
    <linearGradient id="paint1_linear" x1="16" y1="6" x2="48" y2="58" gradientUnits="userSpaceOnUse">
      <stop stop-color="#3FC6FF" stop-opacity="0.9"/>
      <stop offset="1" stop-color="#2458FF" stop-opacity="0.6"/>
    </linearGradient>
  </defs>
  <circle cx="32" cy="32" r="30" fill="url(#paint0_radial)"/>
  <circle cx="32" cy="32" r="30" fill="url(#paint1_linear)" opacity="0.9"/>
  <circle cx="32" cy="32" r="30" stroke="rgba(255,255,255,0.2)" stroke-width="2" fill="none"/>
  <path d="M21 41V23H34V27H25.2V30.4H33.5V34.4H25.2V41H21ZM37 41V23H46.6C48.706 23 50.396 23.58 51.668 24.74C52.956 25.9 53.6 27.44 53.6 29.36C53.6 30.96 53.204 32.3 52.412 33.38C51.62 34.46 50.54 35.18 49.172 35.54L54 41H48.792L44.4 36.02H41.4V41H37ZM41.4 32.42H46.344C47.288 32.42 48.012 32.18 48.516 31.7C49.036 31.204 49.296 30.52 49.296 29.64C49.296 28.72 49.036 28.02 48.516 27.54C48.012 27.06 47.288 26.82 46.344 26.82H41.4V32.42Z" fill="white"/>
</svg>
